<svg width="32" height="32" viewBox="0 0 32 32" fill="none" xmlns="http://www.w3.org/2000/svg">
  <style>
    @media (prefers-color-scheme: dark) {
      path {
        fill: white;
      }
    }
  </style>
  
  <path d="M22 9.71428C22 10.3167 21.9512 10.8405 21.8537 11.2857C21.9512 11.7048 22 12.2286 22 12.8571C22 13.4595 21.9512 13.9833 21.8537 14.4286H20.3902C20.4878 14.8476 20.5366 15.3714 20.5366 16C20.5366 16.6024 20.4878 17.1262 20.3902 17.5714H13.0732C13.1707 17.9905 13.2195 18.5143 13.2195 19.1429C13.2195 19.7452 13.1707 20.269 13.0732 20.7143C13.1707 21.1333 13.2195 21.6571 13.2195 22.2857C13.2195 22.8881 13.1707 23.4119 13.0732 23.8571C13.1707 24.2762 13.2195 24.8 13.2195 25.4286C13.2195 26.031 13.1707 26.5548 13.0732 27H10.1463C10.0488 26.5548 10 26.031 10 25.4286C10 24.8 10.0488 24.2762 10.1463 23.8571C10.0488 23.4119 10 22.8881 10 22.2857C10 21.6571 10.0488 21.1333 10.1463 20.7143C10.0488 20.269 10 19.7452 10 19.1429C10 18.5143 10.0488 17.9905 10.1463 17.5714C10.0488 17.1262 10 16.6024 10 16C10 15.3714 10.0488 14.8476 10.1463 14.4286C10.0488 13.9833 10 13.4595 10 12.8571C10 12.2286 10.0488 11.7048 10.1463 11.2857C10.0488 10.8405 10 10.3167 10 9.71428C10 9.08571 10.0488 8.5619 10.1463 8.14286C10.0488 7.69762 10 7.17381 10 6.57143C10 5.94286 10.0488 5.41905 10.1463 5H20.3902C20.4878 5.41905 20.5366 5.94286 20.5366 6.57143C20.5366 7.17381 20.4878 7.69762 20.3902 8.14286H21.8537C21.9512 8.5619 22 9.08571 22 9.71428ZM18.9268 14.4286C18.8293 13.9833 18.7805 13.4595 18.7805 12.8571C18.7805 12.2286 18.8293 11.7048 18.9268 11.2857C18.8293 10.8405 18.7805 10.3167 18.7805 9.71428C18.7805 9.08571 18.8293 8.5619 18.9268 8.14286H13.0732C13.1707 8.5619 13.2195 9.08571 13.2195 9.71428C13.2195 10.3167 13.1707 10.8405 13.0732 11.2857C13.1707 11.7048 13.2195 12.2286 13.2195 12.8571C13.2195 13.4595 13.1707 13.9833 13.0732 14.4286H18.9268Z" fill="black"/>
</svg>
